<?xml version="1.0" encoding="UTF-8" standalone="no" ?>
<!DOCTYPE svg PUBLIC "-//W3C//DTD SVG 1.1//EN" "http://www.w3.org/Graphics/SVG/1.1/DTD/svg11.dtd">
<svg xmlns="http://www.w3.org/2000/svg" xmlns:xlink="http://www.w3.org/1999/xlink" version="1.1" width="1024" height="1024" viewBox="0 0 1024 1024" xml:space="preserve">
<desc>Created with Fabric.js 3.1.0</desc>
<defs>
</defs>
<g transform="matrix(1 0 0 1 512 512)" id="background-logo"  >
<rect style="stroke: none; stroke-width: 1; stroke-dasharray: none; stroke-linecap: butt; stroke-dashoffset: 0; stroke-linejoin: miter; stroke-miterlimit: 4; fill: rgb(38,36,36); fill-rule: nonzero; opacity: 1;"  paint-order="stroke"  x="-512" y="-512" rx="0" ry="0" width="1024" height="1024" />
</g>
<g transform="matrix(1.5745007680491552 0 0 1.5745007680491552 511.64968302309165 728.7104883214743)"  >
<path style="stroke: none; stroke-width: 1; stroke-dasharray: none; stroke-linecap: butt; stroke-dashoffset: 0; stroke-linejoin: miter; stroke-miterlimit: 10; fill: rgb(255,255,255); fill-rule: nonzero; opacity: 1;"  paint-order="stroke"  transform=" translate(-162.445, 20.055)" d="M 2.73 -20.18 L 2.73 -20.18 Q 2.73 -24.1 4.11 -27.82 Q 5.48 -31.53 7.9 -34.4 Q 10.33 -37.27 13.71 -38.98 Q 17.09 -40.69 21.15 -40.69 L 21.15 -40.69 Q 24.3 -40.69 26.75 -40.04 Q 29.2 -39.38 31.07 -38.21 Q 32.95 -37.04 34.29 -35.42 Q 35.63 -33.79 36.6 -31.87 L 36.6 -31.87 L 35.51 -31.53 Q 33.18 -35.82 29.53 -37.68 Q 25.88 -39.55 21.15 -39.55 L 21.15 -39.55 Q 17.17 -39.55 13.97 -37.87 Q 10.77 -36.18 8.52 -33.45 Q 6.26 -30.73 5.07 -27.25 Q 3.87 -23.77 3.87 -20.18 L 3.87 -20.18 Q 3.87 -16.37 5.27 -12.86 Q 6.68 -9.35 9.13 -6.67 Q 11.58 -3.98 14.82 -2.39 Q 18.06 -0.81 21.82 -0.81 L 21.82 -0.81 Q 23.71 -0.81 25.97 -1.46 Q 28.22 -2.12 30.32 -3.26 Q 32.42 -4.4 34.11 -5.96 Q 35.79 -7.51 36.49 -9.35 L 36.49 -9.35 L 37.57 -9.07 Q 36.77 -6.85 35 -5.11 Q 33.23 -3.37 31 -2.14 Q 28.78 -0.92 26.36 -0.29 Q 23.94 0.33 21.82 0.33 L 21.82 0.33 Q 17.59 0.33 14.1 -1.46 Q 10.6 -3.26 8.07 -6.16 Q 5.54 -9.07 4.13 -12.75 Q 2.73 -16.42 2.73 -20.18 Z M 39.94 -1.89 L 39.94 -1.89 L 40.58 -2.78 Q 43.89 -0.5 48.71 -0.5 L 48.71 -0.5 Q 52.35 -0.5 54.5 -1.85 Q 56.64 -3.2 57.75 -5.68 Q 58.86 -8.15 59.21 -11.75 Q 59.56 -15.34 59.56 -19.9 L 59.56 -19.9 L 59.56 -40.41 L 60.67 -40.41 L 60.67 -19.9 Q 60.67 -15.28 60.31 -11.48 Q 59.95 -7.68 58.7 -5.01 Q 57.45 -2.34 55.08 -0.85 Q 52.71 0.64 48.71 0.64 L 48.71 0.64 Q 43.58 0.61 39.94 -1.89 Z M 86.14 -5.98 L 86.14 -5.98 L 86.98 -6.74 Q 89.76 -3.84 93.5 -2.35 Q 97.25 -0.86 101.17 -0.86 L 101.17 -0.86 Q 103.51 -0.86 105.96 -1.38 Q 108.41 -1.89 110.41 -3.03 Q 112.41 -4.17 113.69 -6 Q 114.97 -7.82 114.97 -10.44 L 114.97 -10.44 Q 114.97 -13.33 113.64 -15.13 Q 112.3 -16.92 110.21 -17.95 Q 108.13 -18.98 105.65 -19.33 Q 103.17 -19.68 100.89 -19.68 L 100.89 -19.68 Q 98.16 -19.68 95.59 -20.18 Q 93.01 -20.68 91.05 -21.9 Q 89.09 -23.13 87.89 -25.19 Q 86.7 -27.25 86.7 -30.34 L 86.7 -30.34 Q 86.7 -33.23 87.98 -35.22 Q 89.26 -37.21 91.32 -38.44 Q 93.38 -39.66 95.85 -40.2 Q 98.33 -40.75 100.72 -40.75 L 100.72 -40.75 Q 103.23 -40.75 105.14 -40.38 Q 107.04 -40.02 108.56 -39.3 Q 110.08 -38.58 111.22 -37.53 Q 112.36 -36.49 113.3 -35.12 L 113.3 -35.12 L 112.25 -34.65 Q 111.27 -36.07 109.96 -37.04 Q 108.66 -38.02 107.11 -38.59 Q 105.57 -39.16 103.94 -39.38 Q 102.31 -39.6 100.72 -39.6 L 100.72 -39.6 Q 98.33 -39.6 96.05 -39.13 Q 93.77 -38.66 91.97 -37.57 Q 90.18 -36.49 89.03 -34.69 Q 87.89 -32.9 87.84 -30.34 L 87.84 -30.34 Q 87.84 -27.44 89.01 -25.58 Q 90.18 -23.71 92.03 -22.66 Q 93.88 -21.6 96.22 -21.21 Q 98.55 -20.82 100.89 -20.82 L 100.89 -20.82 Q 103.62 -20.82 106.33 -20.36 Q 109.05 -19.9 111.24 -18.73 Q 113.44 -17.56 114.78 -15.53 Q 116.12 -13.5 116.12 -10.44 L 116.12 -10.44 Q 116.12 -7.4 114.68 -5.39 Q 113.25 -3.37 111.04 -2.09 Q 108.82 -0.81 106.19 -0.26 Q 103.56 0.28 101.17 0.28 L 101.17 0.28 Q 96.16 0.28 92.43 -1.57 Q 88.7 -3.42 86.14 -5.98 Z M 134.32 -39.33 L 118.81 -39.33 L 118.81 -40.47 L 150.96 -40.47 L 150.96 -39.33 L 135.46 -39.33 L 135.46 0 L 134.32 0 L 134.32 -39.33 Z M 153.86 0 L 152.6 0 L 170.28 -40.47 L 171.31 -40.47 L 188.92 0 L 187.67 0 L 181.33 -14.47 L 160.2 -14.47 L 153.86 0 Z M 170.81 -38.83 L 160.65 -15.61 L 180.82 -15.61 L 170.81 -38.83 Z M 195.91 0 L 194.77 0 L 194.77 -40.47 L 195.6 -40.47 L 226.58 -1.64 L 226.58 -40.41 L 227.69 -40.41 L 227.69 0 L 226.39 0 L 195.91 -38.24 L 195.91 0 Z M 237.63 0 L 236.49 0 L 236.49 -40.41 L 237.63 -40.41 L 237.63 0 Z M 244.28 -5.98 L 244.28 -5.98 L 245.12 -6.74 Q 247.9 -3.84 251.64 -2.35 Q 255.39 -0.86 259.31 -0.86 L 259.31 -0.86 Q 261.65 -0.86 264.1 -1.38 Q 266.55 -1.89 268.55 -3.03 Q 270.56 -4.17 271.84 -6 Q 273.12 -7.82 273.12 -10.44 L 273.12 -10.44 Q 273.12 -13.33 271.78 -15.13 Q 270.44 -16.92 268.36 -17.95 Q 266.27 -18.98 263.79 -19.33 Q 261.31 -19.68 259.03 -19.68 L 259.03 -19.68 Q 256.31 -19.68 253.73 -20.18 Q 251.16 -20.68 249.19 -21.9 Q 247.23 -23.13 246.04 -25.19 Q 244.84 -27.25 244.84 -30.34 L 244.84 -30.34 Q 244.84 -33.23 246.12 -35.22 Q 247.4 -37.21 249.46 -38.44 Q 251.52 -39.66 254 -40.2 Q 256.47 -40.75 258.87 -40.75 L 258.87 -40.75 Q 261.37 -40.75 263.28 -40.38 Q 265.18 -40.02 266.7 -39.3 Q 268.22 -38.58 269.36 -37.53 Q 270.5 -36.49 271.45 -35.12 L 271.45 -35.12 L 270.39 -34.65 Q 269.41 -36.07 268.11 -37.04 Q 266.8 -38.02 265.25 -38.59 Q 263.71 -39.16 262.08 -39.38 Q 260.45 -39.6 258.87 -39.6 L 258.87 -39.6 Q 256.47 -39.6 254.19 -39.13 Q 251.91 -38.66 250.11 -37.57 Q 248.32 -36.49 247.18 -34.69 Q 246.04 -32.9 245.98 -30.34 L 245.98 -30.34 Q 245.98 -27.44 247.15 -25.58 Q 248.32 -23.71 250.17 -22.66 Q 252.02 -21.6 254.36 -21.21 Q 256.69 -20.82 259.03 -20.82 L 259.03 -20.82 Q 261.76 -20.82 264.47 -20.36 Q 267.19 -19.9 269.39 -18.73 Q 271.58 -17.56 272.92 -15.53 Q 274.26 -13.5 274.26 -10.44 L 274.26 -10.44 Q 274.26 -7.4 272.82 -5.39 Q 271.39 -3.37 269.18 -2.09 Q 266.96 -0.81 264.33 -0.26 Q 261.7 0.28 259.31 0.28 L 259.31 0.28 Q 254.3 0.28 250.57 -1.57 Q 246.84 -3.42 244.28 -5.98 Z M 279.46 -20.18 L 279.46 -20.18 Q 279.46 -24.1 280.84 -27.82 Q 282.22 -31.53 284.64 -34.4 Q 287.06 -37.27 290.44 -38.98 Q 293.82 -40.69 297.89 -40.69 L 297.89 -40.69 Q 301.03 -40.69 303.48 -40.04 Q 305.93 -39.38 307.81 -38.21 Q 309.69 -37.04 311.02 -35.42 Q 312.36 -33.79 313.33 -31.87 L 313.33 -31.87 L 312.25 -31.53 Q 309.91 -35.82 306.26 -37.68 Q 302.62 -39.55 297.89 -39.55 L 297.89 -39.55 Q 293.91 -39.55 290.71 -37.87 Q 287.5 -36.18 285.25 -33.45 Q 283 -30.73 281.8 -27.25 Q 280.6 -23.77 280.6 -20.18 L 280.6 -20.18 Q 280.6 -16.37 282.01 -12.86 Q 283.41 -9.35 285.86 -6.67 Q 288.31 -3.98 291.55 -2.39 Q 294.8 -0.81 298.55 -0.81 L 298.55 -0.81 Q 300.45 -0.81 302.7 -1.46 Q 304.96 -2.12 307.06 -3.26 Q 309.16 -4.4 310.84 -5.96 Q 312.53 -7.51 313.22 -9.35 L 313.22 -9.35 L 314.31 -9.07 Q 313.5 -6.85 311.73 -5.11 Q 309.97 -3.37 307.74 -2.14 Q 305.51 -0.92 303.09 -0.29 Q 300.67 0.33 298.55 0.33 L 298.55 0.33 Q 294.32 0.33 290.83 -1.46 Q 287.34 -3.26 284.81 -6.16 Q 282.27 -9.07 280.87 -12.75 Q 279.46 -16.42 279.46 -20.18 Z M 322.16 0 L 321.01 0 L 321.01 -40.41 L 322.16 -40.41 L 322.16 0 Z" stroke-linecap="round" />
</g>
<g transform="matrix(1.5745007680491552 0 0 1.5745007680491552 512 471.73356792154186)"  >
<path style="stroke: none; stroke-width: 1; stroke-dasharray: none; stroke-linecap: butt; stroke-dashoffset: 0; stroke-linejoin: miter; stroke-miterlimit: 4; fill: rgb(55,182,255); fill-rule: nonzero; opacity: 1;"  paint-order="stroke"  transform=" translate(-118.825, 112.5)" d="M 18.44 -64.45 Q 8.59 -87.34 8.59 -112.5 Q 8.59 -137.66 18.44 -160.55 Q 28.28 -183.44 44.84 -200 Q 61.41 -216.56 84.3 -226.41 Q 107.19 -236.25 132.34 -236.25 L 132.34 -236.25 Q 161.09 -236.25 186.41 -223.83 Q 211.72 -211.41 229.06 -189.69 L 229.06 -189.69 L 220 -182.97 Q 204.22 -202.5 181.33 -213.75 Q 158.44 -225 132.34 -225 L 132.34 -225 Q 109.53 -225 88.67 -216.09 Q 67.81 -207.19 52.73 -192.11 Q 37.66 -177.03 28.75 -156.17 Q 19.84 -135.31 19.84 -112.5 Q 19.84 -89.69 28.75 -68.83 Q 37.66 -47.97 52.73 -32.89 Q 67.81 -17.81 88.67 -8.91 Q 109.53 0 132.34 0 L 132.34 0 Q 158.44 0 181.33 -11.25 Q 204.22 -22.5 220 -42.03 L 220 -42.03 L 228.91 -35.16 Q 211.56 -13.59 186.33 -1.17 Q 161.09 11.25 132.34 11.25 L 132.34 11.25 Q 107.19 11.25 84.3 1.41 Q 61.41 -8.44 44.84 -25 Q 28.28 -41.56 18.44 -64.45 Z M 39.14 -73.13 Q 31.09 -91.88 31.09 -112.5 Q 31.09 -133.13 39.14 -151.88 Q 47.19 -170.63 60.7 -184.14 Q 74.22 -197.66 92.97 -205.7 Q 111.72 -213.75 132.34 -213.75 L 132.34 -213.75 Q 155.94 -213.75 176.64 -203.59 Q 197.34 -193.44 211.56 -175.63 L 211.56 -175.63 L 202.81 -168.59 Q 190.16 -184.38 171.72 -193.44 Q 153.28 -202.5 132.34 -202.5 L 132.34 -202.5 Q 114.06 -202.5 97.42 -195.39 Q 80.78 -188.28 68.67 -176.17 Q 56.56 -164.06 49.45 -147.42 Q 42.34 -130.78 42.34 -112.5 Q 42.34 -94.22 49.45 -77.58 Q 56.56 -60.94 68.67 -48.83 Q 80.78 -36.72 97.42 -29.61 Q 114.06 -22.5 132.34 -22.5 L 132.34 -22.5 Q 153.28 -22.5 171.72 -31.56 Q 190.16 -40.63 202.81 -56.41 L 202.81 -56.41 L 211.25 -49.06 Q 197.03 -31.41 176.41 -21.33 Q 155.78 -11.25 132.34 -11.25 L 132.34 -11.25 Q 111.72 -11.25 92.97 -19.3 Q 74.22 -27.34 60.7 -40.86 Q 47.19 -54.38 39.14 -73.13 Z M 64.14 -72.97 Q 53.59 -91.09 53.59 -112.5 Q 53.59 -133.91 64.14 -152.03 Q 74.69 -170.16 92.81 -180.7 Q 110.94 -191.25 132.34 -191.25 L 132.34 -191.25 Q 150.63 -191.25 166.8 -183.36 Q 182.97 -175.47 193.91 -161.56 L 193.91 -161.56 L 185 -154.69 Q 175.63 -166.56 161.8 -173.28 Q 147.97 -180 132.34 -180 L 132.34 -180 Q 104.38 -180 84.61 -160.16 Q 64.84 -140.31 64.84 -112.5 Q 64.84 -84.69 84.61 -64.84 Q 104.38 -45 132.34 -45 L 132.34 -45 Q 147.97 -45 161.88 -51.8 Q 175.78 -58.59 185.16 -70.47 L 185.16 -70.47 L 193.75 -63.28 Q 182.81 -49.53 166.72 -41.64 Q 150.63 -33.75 132.34 -33.75 L 132.34 -33.75 Q 110.94 -33.75 92.81 -44.3 Q 74.69 -54.84 64.14 -72.97 Z M 92.58 -72.73 Q 76.09 -89.22 76.09 -112.5 Q 76.09 -135.78 92.58 -152.27 Q 109.06 -168.75 132.34 -168.75 L 132.34 -168.75 Q 145.47 -168.75 157.03 -163.05 Q 168.59 -157.34 176.41 -147.5 L 176.41 -147.5 L 167.34 -140.63 Q 153.75 -157.5 132.34 -157.5 L 132.34 -157.5 Q 113.75 -157.5 100.55 -144.3 Q 87.34 -131.09 87.34 -112.5 Q 87.34 -93.91 100.55 -80.7 Q 113.75 -67.5 132.34 -67.5 L 132.34 -67.5 Q 142.81 -67.5 151.95 -72.03 Q 161.09 -76.56 167.5 -84.53 L 167.5 -84.53 L 176.25 -77.19 Q 168.44 -67.34 156.88 -61.8 Q 145.31 -56.25 132.34 -56.25 L 132.34 -56.25 Q 109.06 -56.25 92.58 -72.73 Z" stroke-linecap="round" />
</g>
</svg>